<?xml version="1.0" encoding="UTF-8"?>
<svg id="Layer_2" data-name="Layer 2" xmlns="http://www.w3.org/2000/svg" viewBox="0 0 345.5 90.34">
  <defs>
    <style>
      .cls-1 {
        fill: #0b2f9c;
      }
    </style>
  </defs>
  <g id="Layer_1-2" data-name="Layer 1">
    <g>
      <path class="cls-1" d="m45.09,0h0s-.06,0-.09,0C19.81.19-.18,20.39,0,45.48c.17,24.87,20.37,44.94,45.09,44.86h0s.06,0,.09,0c25.19-.19,45.18-20.39,45-45.48C90.01,19.99,69.81-.08,45.09,0ZM8.41,25.92c.46,2.55.78,5.21,1.44,7.77.43,1.66,1,3.27,1.59,4.91l2.88-2.25c-.05-.18-.11-.36-.17-.55-1.43-4.17-2.52-8.42-1.77-12.85.33-1.95,1.12-3.83,1.8-6.05,3.43,3.54,6.5,6.69,9.74,10.04.99-1.14,1.68-1.95,2.5-2.89-3.07-2.99-6.22-6.05-9.38-9.12,5.09-4.71,17.04-2.52,24.1,1.82-16.47,12.09-29.9,26.27-32.8,47.54-6.42-10.29-6.6-27.49.06-38.36Zm8.32,23.22c2.41,3.15,4.83,6.3,7.24,9.45,1.02-.92,1.8-1.62,2.54-2.29-2.33-3.22-4.53-6.34-6.82-9.39-.93-1.24-.97-2.25,0-3.49,3.02-3.92,5.97-7.9,8.94-11.84,10.38,7.25,9.97,17.82,3.37,24.1-5.9,5.6-11.52,11.49-17.26,17.25-4.48-4.33-2.49-16.7,2.01-23.8Zm12.43,14.99c3.86,3.07,7.91,6.28,12.19,9.68-7.93,3.41-15.66,6.53-24.15,2.2,4.11-4.09,8.04-7.99,11.95-11.88Zm13.71,22.57c-6.17-.31-12.21-1.93-17.07-4.89,6.26-.53,11.88-2.29,17.07-4.87v9.76Zm0-16.62c-3.81-2.77-7.6-5.58-11.48-8.45,3.64-4.57,7.56-7.16,11.48-7.9v16.34Zm0-33.49c-3.93-.68-7.77-3.2-11.14-7.58,3.41-3.34,7.13-6.3,11.14-8.88v16.46Zm0-23.11c-1.39-.68-2.82-1.31-4.28-1.88-4.01-1.58-8.34-2.34-12.54-3.47,5.58-2.7,11.2-4.22,16.82-4.52v9.87Zm4.44-9.82c6.17.31,12.21,1.93,17.07,4.89-6.26.53-11.88,2.29-17.07,4.87V3.65Zm25.66,10.68c-4.11,4.09-8.04,7.99-11.95,11.88-3.86-3.07-7.91-6.28-12.19-9.68,7.93-3.41,15.66-6.52,24.15-2.2Zm-25.66,5.94c3.81,2.77,7.6,5.58,11.48,8.45-3.64,4.57-7.56,7.16-11.48,7.9v-16.34Zm0,33.49c3.93.68,7.77,3.2,11.14,7.58-3.41,3.34-7.13,6.3-11.14,8.88v-16.46Zm0,32.99v-9.87c1.39.68,2.82,1.31,4.28,1.88,4.01,1.58,8.34,2.34,12.54,3.47-5.58,2.7-11.2,4.22-16.82,4.52Zm34.46-22.33c-.46-2.55-.78-5.21-1.44-7.77-.43-1.66-1-3.27-1.59-4.91l-2.88,2.25c.05.18.11.36.17.55,1.43,4.17,2.52,8.42,1.77,12.85-.33,1.95-1.12,3.83-1.8,6.05-3.43-3.54-6.5-6.69-9.74-10.04-.99,1.14-1.68,1.95-2.5,2.89,3.07,2.99,6.22,6.05,9.38,9.12-5.09,4.71-17.04,2.52-24.1-1.82,16.47-12.09,29.9-26.27,32.8-47.54,6.42,10.29,6.6,27.49-.06,38.36Zm-8.32-23.22c-2.41-3.15-4.83-6.3-7.24-9.45-1.02.92-1.8,1.62-2.54,2.29,2.33,3.22,4.53,6.34,6.82,9.39.93,1.24.97,2.25,0,3.49-3.02,3.92-5.97,7.9-8.94,11.84-10.38-7.25-9.97-17.82-3.37-24.1,5.9-5.6,11.52-11.49,17.26-17.25,4.48,4.33,2.49,16.7-2.01,23.8Z"/>
      <path class="cls-1" d="m113.12,26.91h-11.16v29.48h11.16c9.18,0,13.94-5.26,13.94-14.74s-4.76-14.74-13.94-14.74Zm-.63,24.01h-4.21v-18.53h4.21c6.02,0,8.13,2.78,8.13,9.27s-2.11,9.27-8.13,9.27Z"/>
      <rect class="cls-1" x="129.13" y="34.49" width="6.15" height="21.9"/>
      <path class="cls-1" d="m132.2,25.14c-1.77,0-3.37,1.47-3.37,3.41s1.6,3.37,3.37,3.37,3.37-1.47,3.37-3.37-1.6-3.41-3.37-3.41Z"/>
      <rect class="cls-1" x="161.48" y="34.49" width="6.15" height="21.9"/>
      <path class="cls-1" d="m164.55,25.14c-1.77,0-3.37,1.47-3.37,3.41s1.6,3.37,3.37,3.37,3.37-1.47,3.37-3.37-1.6-3.41-3.37-3.41Z"/>
      <path class="cls-1" d="m178.71,48.94v-9.69h4.34v-4.76h-4.34v-5.64h-6.15v5.64h-3.71v4.76h3.71v10.57c0,4.89,2.91,6.87,7.29,6.87,1.22,0,2.4-.17,3.37-.42v-4.59c-.88.08-1.26.08-1.73.08-2.27,0-2.78-1.14-2.78-2.82Z"/>
      <path class="cls-1" d="m194.25,34.07c-6.82,0-9.69,2.44-9.69,6.74v1.01l5.77-.04v-.38c0-2.27,1.77-2.91,3.75-2.91s3.41.63,3.41,2.95v.29c0,1.22-.63,1.56-2.65,1.85l-3.71.55c-3.79.55-7.75,1.6-7.75,6.44,0,4.51,3.45,6.23,7.03,6.23,4.8,0,6.57-3.12,6.99-4.3h.25v3.88h5.85v-15.21c0-4.76-2.65-7.12-9.27-7.12Zm3.24,14.7c0,1.73-2.06,3.66-4.97,3.66-2.11,0-2.99-1.01-2.99-2.36,0-1.14.63-2.06,2.53-2.36l3.07-.55c.97-.17,2.02-.34,2.36-.84v2.44Z"/>
      <rect class="cls-1" x="206.21" y="26.91" width="6.15" height="29.48"/>
      <path class="cls-1" d="m229.12,39.13l-3.79-.76c-2.65-.55-3.5-1.85-3.5-3.2,0-1.73,1.22-3.41,4.63-3.41,2.91,0,5.05,1.22,4.97,3.88h6.49c0-6.07-4.42-9.1-11.33-9.1s-11.37,2.95-11.37,8.63c0,5.27,3.92,7.37,8.59,8.26l4.13.84c2.7.55,4.09,1.47,4.09,3.5,0,2.4-1.94,3.83-5.27,3.83-4.09,0-5.69-2.19-5.81-4.84h-6.53c0,6.49,4.68,10.07,12.3,10.07,6.74,0,12-2.74,12-9.1,0-4.46-2.65-7.16-9.6-8.59Z"/>
      <path class="cls-1" d="m253.39,34.07c-3.24,0-5.64,1.68-6.44,3.58v-3.16h-6.15v29.9h6.15v-11.16c.8,1.9,3.2,3.58,6.44,3.58,4.59,0,9.6-3.33,9.6-11.37s-5.01-11.37-9.6-11.37Zm-1.47,17.65c-2.7,0-5.22-1.98-5.22-6.28s2.53-6.28,5.22-6.28,5.27,1.98,5.27,6.28-2.53,6.28-5.27,6.28Z"/>
      <path class="cls-1" d="m278.03,34.07c-4.51,0-6.61,2.95-6.99,5.01h-.25v-12.17h-6.15v29.48h6.15v-12.43c0-3.33,2.02-4.8,4.59-4.8s4.04,1.47,4.04,4.8v12.43h6.15v-13.9c0-5.69-3.29-8.42-7.54-8.42Z"/>
      <path class="cls-1" d="m298.2,34.07c-5.81,0-10.99,3.16-10.99,11.33s5.48,11.41,11.04,11.41c5.1,0,8.97-2.57,10.07-7.58h-5.43c-.51,1.77-1.73,2.91-4.55,2.91-3.03,0-4.93-1.47-5.27-5.14h15.42c.08-.46.13-.88.13-1.68,0-8.3-4.76-11.25-10.4-11.25Zm-5.14,9.31c.42-3.03,2.11-4.63,4.97-4.63,3.37,0,4.67,2.11,4.76,4.63h-9.73Z"/>
      <path class="cls-1" d="m324.57,34.54c-.63-.17-1.18-.21-1.68-.21-3.5,0-5.56,2.27-6.32,5.48h-.17v-5.31h-6.15v21.9h6.15v-9.69c0-5.31,3.16-7.12,6.44-7.12.55,0,1.05.04,1.73.13v-5.18Z"/>
      <path class="cls-1" d="m345.5,45.32c0-8.3-4.76-11.25-10.4-11.25s-10.99,3.16-10.99,11.33,5.48,11.41,11.04,11.41c5.1,0,8.97-2.57,10.07-7.58h-5.43c-.51,1.77-1.73,2.91-4.55,2.91-3.03,0-4.93-1.47-5.26-5.14h15.42c.08-.46.13-.88.13-1.68Zm-15.54-1.94c.42-3.03,2.11-4.63,4.97-4.63,3.37,0,4.68,2.11,4.76,4.63h-9.73Z"/>
      <path class="cls-1" d="m155.77,34.62h-3.41l-.05-.03-.63,1.22-.35.68c-.72-.38-1.36-.54-1.85-.52l-.03-1.44h0l-.02-.88-2.85.07v.27s-.05,1.87-.05,1.87c-.71.15-1.11.39-1.83.53l-1.13-1.95h0l-2.53,1.47,1.13,1.95c-.47.54-1.07.89-1.33,1.31l-1.92-.99h0l-1.19,1.99-.25.42.1.06,1.89,1.14c-.29.42-.43,1.05-.5,1.88h-1.9s-.39,0-.39,0v2.4h.4l1.89.02c.07.83.21,1.45.5,1.88l-1.88,1.13-.11.07.28.47,1.16,1.94h0l1.92-1c.26.42.86.77,1.33,1.31l-1.13,1.96,2.53,1.47h0l1.13-1.96c.72.14,1.12.38,1.83.53l.04,1.85v.29s2.86.08,2.86.08l.02-.91h0l.03-1.42c.49.02,1.13-.14,1.85-.52l.34.67.64,1.24.43-.22h0s0,.54,0,.54c0,3.42-2.36,4.85-5.26,4.85-1.98,0-4.43-.68-4.55-2.78h-5.44c.05,6.44,6.32,7.54,10.16,7.54,4.42,0,11.24-1.48,11.24-9.61v-20.85h-3.12v-.03Zm-12.93,10.23c0-3.92,2.36-5.77,5.14-5.77s5.06,1.85,5.06,5.77-2.36,5.77-5.06,5.77-5.14-1.81-5.14-5.77Zm10.87-7.03s-.04-.04-.06-.06l.06-.08v.14Z"/>
    </g>
  </g>
</svg>