<?xml version="1.0" encoding="UTF-8"?>
<svg version="1.1" xmlns="http://www.w3.org/2000/svg" width="175" height="172">
<path d="M0 0 C1.16946167 0.03927612 1.16946167 0.03927612 2.36254883 0.0793457 C8.06639313 0.38507031 12.92898659 1.7186961 18.25 3.75 C19.47847656 4.20761719 20.70695312 4.66523438 21.97265625 5.13671875 C23.07480469 5.56597656 24.17695312 5.99523437 25.3125 6.4375 C26.43785156 6.87449219 27.56320313 7.31148437 28.72265625 7.76171875 C29.55667969 8.08785156 30.39070313 8.41398438 31.25 8.75 C31.25 9.41 31.25 10.07 31.25 10.75 C31.95898438 10.9975 32.66796875 11.245 33.3984375 11.5 C36.59380095 12.90070727 39.08516412 14.65954446 41.875 16.75 C44.64000188 18.81049456 47.38034848 20.83689899 50.25 22.75 C50.25 23.41 50.25 24.07 50.25 24.75 C50.91 24.75 51.57 24.75 52.25 24.75 C53.9173579 26.75570658 55.43776307 28.7479988 56.9375 30.875 C57.38303223 31.50664063 57.82856445 32.13828125 58.28759766 32.7890625 C70.20971606 50.08664487 78.52471004 73.55415538 74.625 94.875 C74.20353372 96.50994973 73.73958154 98.13413975 73.25 99.75 C72.89550781 101.00554687 72.54101562 102.26109375 72.17578125 103.5546875 C67.44273481 119.86508031 59.82186921 133.05751024 47.25 144.75 C46.83105469 145.21277344 46.41210938 145.67554688 45.98046875 146.15234375 C43.38202218 148.55136102 40.41328486 150.36170092 37.4375 152.25 C36.83357422 152.64058594 36.22964844 153.03117188 35.60742188 153.43359375 C17.03326062 165.30986047 -6.05835454 169.02941024 -27.6875 164.6875 C-50.24290982 158.34379099 -68.64549233 143.63597689 -80.75 123.75 C-91.84906377 102.64280607 -94.73151053 79.60400457 -87.75 56.75 C-77.94841797 32.14830835 -61.34650868 16.10272585 -37.75 4.75 C-35.43529088 4.02129528 -33.0994053 3.35760482 -30.75 2.75 C-29.55375 2.399375 -28.3575 2.04875 -27.125 1.6875 C-18.20724987 -0.45276003 -9.10689042 -0.38193919 0 0 Z M-3.75 7.75 C-3.75 13.03 -3.75 18.31 -3.75 23.75 C-2.0484375 23.13125 -2.0484375 23.13125 -0.3125 22.5 C5.18687241 20.64043657 10.81362507 19.40911543 16.48413086 18.19628906 C20.7918642 17.31713954 20.7918642 17.31713954 24.25 14.75 C15.06155139 10.92269708 6.29526479 7.75 -3.75 7.75 Z M-25.0625 9.5625 C-25.79662109 9.72814453 -26.53074219 9.89378906 -27.28710938 10.06445312 C-32.04393096 11.18296042 -36.31159692 12.70376133 -40.75 14.75 C-37.37564222 16.99957185 -34.61240774 17.69329651 -30.6875 18.6875 C-29.34082555 19.03391353 -27.99447155 19.38157516 -26.6484375 19.73046875 C-25.98811523 19.9011084 -25.32779297 20.07174805 -24.64746094 20.24755859 C-20.64877772 21.30639674 -16.70298244 22.53369771 -12.75 23.75 C-12.75 18.47 -12.75 13.19 -12.75 7.75 C-17.06936939 7.75 -20.89351741 8.57160094 -25.0625 9.5625 Z M-57.75 26.75 C-56.08536962 31.03642324 -52.95924163 33.83617217 -49.75 37 C-49.2034375 37.55429687 -48.656875 38.10859375 -48.09375 38.6796875 C-45.42399232 41.74215775 -45.42399232 41.74215775 -41.75 42.75 C-43 45.25 -43 45.25 -44.75 47.75 C-48.75 47.75 -48.75 47.75 -50.48925781 46.46484375 C-51.05483398 45.87832031 -51.62041016 45.29179688 -52.203125 44.6875 C-52.821875 44.05585937 -53.440625 43.42421875 -54.078125 42.7734375 C-54.71234375 42.10570313 -55.3465625 41.43796875 -56 40.75 C-56.6496875 40.08226563 -57.299375 39.41453125 -57.96875 38.7265625 C-59.57184289 37.07631982 -61.16487834 35.41748209 -62.75 33.75 C-66.94687505 37.57892984 -67.59153288 41.88008801 -68.0625 47.4375 C-67.97119626 52.11225174 -66.62373846 56.4581669 -65.30859375 60.91796875 C-64.70593337 63.97341471 -64.74035345 65.81238517 -65.75 68.75 C-66.74 69.41 -67.73 70.07 -68.75 70.75 C-71.47399099 64.91287645 -73.16039668 58.98440168 -74.75 52.75 C-77.86998414 53.40790618 -77.86998414 53.40790618 -78.84765625 55.8046875 C-85.22156116 74.43610185 -84.97738354 93.34275754 -77.75 111.75 C-77.09 112.41 -76.43 113.07 -75.75 113.75 C-74.28427461 111.03990367 -73.642908 109.17559746 -73.0625 106.0625 C-69.11192761 87.66670488 -58.61480079 71.15083415 -45.75 57.75 C-44.68281814 56.46219881 -43.62015966 55.17063308 -42.5625 53.875 C-35.19728489 45.40844431 -25.82319137 38.28269779 -16.75 31.75 C-19.75727383 29.26758057 -22.5762345 27.90678082 -26.25 26.625 C-27.1884375 26.29242187 -28.126875 25.95984375 -29.09375 25.6171875 C-38.59241175 22.51615381 -48.65599669 22.38487841 -57.75 26.75 Z M1.25 29.75 C1.25 30.74 1.25 31.73 1.25 32.75 C3.4163606 34.69378931 5.55596811 36.44472654 7.875 38.1875 C8.49246094 38.66509766 9.10992187 39.14269531 9.74609375 39.63476562 C13.49854633 42.51427923 17.29774121 45.1151608 21.25 47.75 C27.85 41.15 34.45 34.55 41.25 27.75 C40.37661656 25.45959137 40.37661656 25.45959137 37.5625 24.625 C24.43237149 21.38233668 13.42532659 25.11178035 1.25 29.75 Z M46.25 33.75 C41.39742241 38.52668436 36.5565095 43.31495666 31.72363281 48.11157227 C30.07722747 49.74286552 28.42814319 51.37145953 26.77636719 52.99731445 C24.40635658 55.33104939 22.04606302 57.67423467 19.6875 60.01953125 C18.9437915 60.74775589 18.20008301 61.47598053 17.43383789 62.22627258 C16.75313232 62.90675156 16.07242676 63.58723053 15.37109375 64.28833008 C14.7670874 64.88567459 14.16308105 65.4830191 13.54077148 66.09846497 C11.94210248 67.79460224 11.94210248 67.79460224 12.25 70.75 C11.59 70.75 10.93 70.75 10.25 70.75 C7.78908416 77.51751857 6.84835623 85.05130781 8.9375 92.0546875 C11.84536831 98.28237214 16.01607689 103.7690455 22.25 106.75 C24.54278455 103.6466576 26.83403389 100.54218499 29.125 97.4375 C29.77597656 96.55642578 30.42695312 95.67535156 31.09765625 94.76757812 C31.72285156 93.92001953 32.34804687 93.07246094 32.9921875 92.19921875 C33.5682373 91.41893311 34.14428711 90.63864746 34.73779297 89.8347168 C37.52346218 86.28584761 37.52346218 86.28584761 38.1875 81.9765625 C37.02286043 77.9682613 34.88853966 75.26193049 32.25 72.125 C26.67824688 65.40794207 26.67824688 65.40794207 26.25 61.75 C27.9 60.43 29.55 59.11 31.25 57.75 C31.48460938 58.28109375 31.71921875 58.8121875 31.9609375 59.359375 C33.63702912 62.4677631 35.73451926 65.20399703 37.875 68 C38.29523438 68.55429688 38.71546875 69.10859375 39.1484375 69.6796875 C40.17938719 71.03866663 41.21429911 72.39463835 42.25 73.75 C48.95240865 67.48890221 50.72759667 58.27471104 51.44140625 49.359375 C51.56642096 44.45879839 51.02652592 40.33156684 49.25 35.75 C48.26 35.09 47.27 34.43 46.25 33.75 Z M-15.75 39.75 C-18.43953286 41.49966898 -18.43953286 41.49966898 -21.1875 43.9375 C-22.13496094 44.73542969 -23.08242187 45.53335938 -24.05859375 46.35546875 C-26.37632786 48.41754568 -28.58805366 50.52672184 -30.75 52.75 C-29.32646476 56.08136597 -27.6164687 58.02664757 -24.875 60.375 C-24.19695312 60.96539062 -23.51890625 61.55578125 -22.8203125 62.1640625 C-19.20898067 64.93047896 -17.3988281 65.75 -12.75 65.75 C-12.75 57.5 -12.75 49.25 -12.75 40.75 C-13.74 40.42 -14.73 40.09 -15.75 39.75 Z M-2.75 39.75 C-4.03426897 40.80950052 -4.03426897 40.80950052 -3.86352539 43.25024414 C-3.85828857 44.33426514 -3.85305176 45.41828613 -3.84765625 46.53515625 C-3.84443359 47.70498047 -3.84121094 48.87480469 -3.83789062 50.08007812 C-3.82951172 51.31177734 -3.82113281 52.54347656 -3.8125 53.8125 C-3.80798828 55.04806641 -3.80347656 56.28363281 -3.79882812 57.55664062 C-3.78699608 60.62114117 -3.77051173 63.68554721 -3.75 66.75 C4.08412696 63.94923642 4.08412696 63.94923642 10.8125 59.1875 C11.45316406 58.60871094 12.09382813 58.02992187 12.75390625 57.43359375 C14.48138794 55.71214768 14.48138794 55.71214768 15.25 52.75 C6.73909479 45.53616685 6.73909479 45.53616685 -2.75 39.75 Z M58.25 50.75 C58.064375 52.06097656 58.064375 52.06097656 57.875 53.3984375 C52.39893005 86.04950459 29.2998548 112.99581121 3.0625 131.8125 C2.134375 132.451875 1.20625 133.09125 0.25 133.75 C2.69770455 136.62482078 5.08824337 137.64440249 8.625 138.875 C9.56085938 139.20757812 10.49671875 139.54015625 11.4609375 139.8828125 C19.72509509 142.45234049 30.57193239 143.78285489 38.6875 140.25 C39.533125 139.755 40.37875 139.26 41.25 138.75 C39.92879172 135.81769807 38.50361803 133.76335101 36.2109375 131.515625 C35.63085938 130.94199219 35.05078125 130.36835938 34.453125 129.77734375 C33.84984375 129.19082031 33.2465625 128.60429687 32.625 128 C31.70847656 127.09701172 31.70847656 127.09701172 30.7734375 126.17578125 C29.27011376 124.69594695 27.76065144 123.22235324 26.25 121.75 C26.91 120.43 27.57 119.11 28.25 117.75 C32.25 117.75 32.25 117.75 34.08105469 119.12695312 C34.68852539 119.75537109 35.29599609 120.38378906 35.921875 121.03125 C36.58574219 121.70800781 37.24960938 122.38476562 37.93359375 123.08203125 C38.61550781 123.79746094 39.29742187 124.51289063 40 125.25 C40.69738281 125.96542969 41.39476562 126.68085938 42.11328125 127.41796875 C43.83483021 129.18668344 45.5463744 130.96404305 47.25 132.75 C51.85018091 125.84972864 52.11877729 118.16564909 50.83203125 110.14453125 C50.22024331 106.11917804 50.22024331 106.11917804 48.25 102.75 C48.20936168 101.08382885 48.207279 99.41611905 48.25 97.75 C50.23 96.76 52.21 95.77 54.25 94.75 C55.67415912 101.73443993 56.99602127 108.73305518 58.25 115.75 C64.89678721 107.53146539 66.25755902 96.98071876 67.25 86.75 C67.32347656 85.99332031 67.39695312 85.23664063 67.47265625 84.45703125 C67.98272969 72.99146734 65.29661222 60.47715879 59.25 50.75 C58.92 50.75 58.59 50.75 58.25 50.75 Z M-37.75 59.75 C-41.9604456 63.76479292 -45.57579168 68.08208149 -49.125 72.6875 C-49.68316406 73.37779297 -50.24132812 74.06808594 -50.81640625 74.77929688 C-53.96740829 78.8713851 -53.96740829 78.8713851 -54.91015625 83.84375 C-53.44786295 87.50686856 -51.32301225 90.32312426 -48.8125 93.3125 C-45.81701863 96.93504112 -43.22760008 100.21587862 -41.75 104.75 C-43.73 105.41 -45.71 106.07 -47.75 106.75 C-48.28109375 106.00234375 -48.8121875 105.2546875 -49.359375 104.484375 C-50.06578125 103.49953125 -50.7721875 102.5146875 -51.5 101.5 C-52.54414062 100.03820312 -52.54414062 100.03820312 -53.609375 98.546875 C-55.51452299 96.05766704 -57.47684621 93.90028061 -59.75 91.75 C-65.82071996 98.39888377 -67.18954738 109.12303288 -67.75 117.75 C-67.48794695 121.8586174 -67.0749771 125.83970172 -65.75 129.75 C-64.76 130.41 -63.77 131.07 -62.75 131.75 C-57.80977792 126.88599227 -52.88147384 122.01014327 -47.96118164 117.12597656 C-46.28680567 115.46666463 -44.60974405 113.8100581 -42.92993164 112.15625 C-40.51253443 109.7753391 -38.10503856 107.38478947 -35.69921875 104.9921875 C-34.94912033 104.25757294 -34.19902191 103.52295837 -33.42619324 102.76608276 C-27.22407484 96.56597058 -24.24559142 91.39113168 -23.6953125 82.55078125 C-23.85861501 74.18735981 -27.97900658 67.62027933 -33.75 61.75 C-35.86029209 60.50286661 -35.86029209 60.50286661 -37.75 59.75 Z M-26.19140625 105.86328125 C-28.09820474 107.7837241 -29.95283572 109.72693518 -31.75 111.75 C-28.2444222 115.39813364 -24.6250037 118.51940717 -20.5625 121.5625 C-19.51707031 122.35269531 -18.47164062 123.14289063 -17.39453125 123.95703125 C-15.00660709 125.9370575 -15.00660709 125.9370575 -12.75 125.75 C-12.75 116.84 -12.75 107.93 -12.75 98.75 C-17.29400582 98.75 -22.93985045 103.04873455 -26.19140625 105.86328125 Z M-2.75 99.75 C-4.0808911 102.41178221 -3.86268993 104.43739396 -3.84765625 107.4140625 C-3.84443359 108.53554687 -3.84121094 109.65703125 -3.83789062 110.8125 C-3.82951172 111.988125 -3.82113281 113.16375 -3.8125 114.375 C-3.80798828 115.55835937 -3.80347656 116.74171875 -3.79882812 117.9609375 C-3.78701467 120.89067507 -3.77054258 123.82031272 -3.75 126.75 C-0.64966313 125.2493266 1.91881234 123.57871164 4.625 121.4375 C5.79482422 120.51324219 5.79482422 120.51324219 6.98828125 119.5703125 C9.77178439 117.33004918 12.52240109 115.05796831 15.25 112.75 C12.34935364 106.58612648 6.43248557 102.38536254 0.25 99.75 C-0.74 99.75 -1.73 99.75 -2.75 99.75 Z M-37.75 118.75 C-44.02 125.02 -50.29 131.29 -56.75 137.75 C-52.03561086 142.46438914 -47.79971987 142.0869756 -41.37426758 142.14379883 C-33.86816076 142.01199492 -23.6907284 140.45365783 -18.06176758 135.16333008 C-17.62888428 134.69693115 -17.19600098 134.23053223 -16.75 133.75 C-19.30404676 131.6146715 -21.86962215 129.49366684 -24.4375 127.375 C-25.15873047 126.77171875 -25.87996094 126.1684375 -26.62304688 125.546875 C-27.32880859 124.96679688 -28.03457031 124.38671875 -28.76171875 123.7890625 C-29.40584717 123.25490723 -30.04997559 122.72075195 -30.71362305 122.17041016 C-33.10193362 120.39021132 -33.10193362 120.39021132 -37.75 118.75 Z M-2.75 141.75 C-3.83489672 145.00469015 -3.88323992 147.45543209 -3.875 150.875 C-3.87757812 151.95007813 -3.88015625 153.02515625 -3.8828125 154.1328125 C-4.04688975 156.67656396 -4.04688975 156.67656396 -2.75 157.75 C3.52071984 157.94508906 9.36592675 156.26537315 15.25 154.3125 C15.90887207 154.09513184 16.56774414 153.87776367 17.24658203 153.65380859 C20.12881603 152.65660208 22.06627707 151.93372293 24.25 149.75 C22.97125 149.42386719 21.6925 149.09773437 20.375 148.76171875 C18.66660776 148.32054053 16.95827772 147.87912143 15.25 147.4375 C13.99123047 147.11749023 13.99123047 147.11749023 12.70703125 146.79101562 C7.40369658 145.41379306 2.34730932 143.76178528 -2.75 141.75 Z M-22.9375 145.125 C-28.20070555 147.22196564 -33.18804157 148.7130247 -38.75 149.75 C-35.38353877 154.79969185 -29.44470817 155.35185977 -23.75 156.75 C-20.42358063 157.30866787 -17.12836513 157.78609364 -13.75 157.75 C-12.38467451 156.61298403 -12.38467451 156.61298403 -12.65234375 153.58984375 C-12.66394531 152.30207031 -12.67554687 151.01429688 -12.6875 149.6875 C-12.69652344 148.39714844 -12.70554687 147.10679687 -12.71484375 145.77734375 C-12.72644531 144.77832031 -12.73804687 143.77929688 -12.75 142.75 C-16.94805681 142.75 -19.10344744 143.54007505 -22.9375 145.125 Z " fill="#FDFCFD" transform="translate(94.75,4.25)"/>
</svg>
